<svg width="24" height="24" viewBox="0 0 24 24" xmlns="http://www.w3.org/2000/svg">
    <path d="M12 1.333c5.891 0 10.667 4.776 10.667 10.667S17.89 22.667 12 22.667 1.333 17.89 1.333 12 6.11 1.333 12 1.333zm0 13.902c-.363 0-.652.105-.867.315-.214.205-.322.482-.322.83 0 .345.108.62.322.824.215.21.504.316.867.316s.652-.106.867-.316c.214-.205.322-.48.322-.823 0-.349-.108-.626-.322-.83-.215-.21-.504-.316-.867-.316zm.988-8.243h-1.983l.164 6.925h1.655l.164-6.925z" fill="#FF3C3C" fill-rule="evenodd"/>
</svg>
