<svg xmlns="http://www.w3.org/2000/svg" width="50" height="20" viewBox="0 0 50 20">
    <g fill="none" fill-rule="evenodd">
        <path fill="#FFEB00" d="M40 20H10C4.477 20 0 15.523 0 10S4.477 0 10 0h30c5.523 0 10 4.477 10 10s-4.477 10-10 10"/>
        <path fill="#1E1E1E" d="M13.296 4.969c-2.903 0-5.256 1.858-5.256 4.151 0 1.377.85 2.594 2.155 3.35l-.62 2.311c-.058.221.189.398.38.27l2.684-1.812c.215.021.434.033.657.033 2.902 0 5.255-1.859 5.255-4.152S16.198 4.97 13.296 4.97M23.506 7.329v4.079c.1.012.35.037.586.037 1.297 0 1.796-.91 1.796-2.345 0-1.26-.337-2.02-1.372-2.02-.337 0-.71.1-1.01.249m0 5.35v2.558h-1.821v-9.43h1.285l.224.599c.387-.387.973-.798 1.92-.798 1.785 0 2.633 1.334 2.62 3.492 0 2.258-1.31 3.704-3.18 3.704-.362 0-.637-.025-1.048-.124M32.629 10.871V9.624h-.836c-.935 0-1.41.337-1.41 1.01 0 .512.262.761.799.761.499 0 1.135-.25 1.447-.524m-1.035-2.407h1.035v-.225c0-.748-.424-1.097-1.16-1.097-.561 0-1.285.162-1.871.449l-.5-1.223c.65-.449 1.647-.76 2.533-.76 1.746 0 2.694.923 2.694 2.681v4.329H33.04l-.187-.574c-.736.536-1.41.76-2.02.76-1.335 0-2.084-.798-2.084-2.145 0-1.434.999-2.195 2.845-2.195M39.674 11.92c-.636 1.696-1.397 2.93-2.507 3.616l-1.123-1.035c.649-.561 1.11-1.11 1.51-1.846l-2.42-6.599 1.808-.486 1.547 5.351 1.534-5.376 1.784.5-2.133 5.874z"/>
    </g>
</svg>
